<svg width="693" height="254" viewBox="0 0 693 254" fill="none" xmlns="http://www.w3.org/2000/svg">
<rect width="666" height="254" rx="25" fill="white"/>
<path d="M317.344 109H305.297L305.391 97.6562H317.344C320.656 97.6562 323.234 97.0625 325.078 95.875C326.922 94.6875 328.219 92.8125 328.969 90.25C329.75 87.6875 330.141 84.3281 330.141 80.1719V69.5312C330.141 66.375 329.938 63.7031 329.531 61.5156C329.125 59.2969 328.438 57.5156 327.469 56.1719C326.5 54.7969 325.203 53.7812 323.578 53.125C321.953 52.4688 319.938 52.1406 317.531 52.1406H305.062V40.75H317.531C321.469 40.75 325.047 41.3906 328.266 42.6719C331.484 43.9531 334.25 45.8281 336.562 48.2969C338.875 50.7344 340.656 53.75 341.906 57.3438C343.156 60.9375 343.781 65.0312 343.781 69.625V80.1719C343.781 84.7969 343.156 88.8906 341.906 92.4531C340.656 96.0156 338.875 99.0312 336.562 101.5C334.281 103.938 331.516 105.797 328.266 107.078C325.016 108.359 321.375 109 317.344 109ZM313.266 40.75V109H299.531V40.75H313.266ZM373.594 109.938C370.125 109.938 367.047 109.406 364.359 108.344C361.703 107.281 359.453 105.75 357.609 103.75C355.766 101.719 354.359 99.2656 353.391 96.3906C352.422 93.5156 351.938 90.2344 351.938 86.5469V82.375C351.938 78.25 352.406 74.6406 353.344 71.5469C354.281 68.4219 355.609 65.7969 357.328 63.6719C359.047 61.5469 361.156 59.9688 363.656 58.9375C366.188 57.875 369.047 57.3438 372.234 57.3438C375.422 57.3438 378.219 57.875 380.625 58.9375C383.062 59.9688 385.078 61.5312 386.672 63.625C388.266 65.6875 389.469 68.25 390.281 71.3125C391.094 74.375 391.5 77.9375 391.5 82V88H357.516V78.7656H378.609V77.5938C378.609 75.5312 378.391 73.8125 377.953 72.4375C377.516 71.0312 376.828 69.9844 375.891 69.2969C374.953 68.6094 373.703 68.2656 372.141 68.2656C370.828 68.2656 369.719 68.5312 368.812 69.0625C367.906 69.5938 367.188 70.4219 366.656 71.5469C366.125 72.6719 365.734 74.1406 365.484 75.9531C365.234 77.7344 365.109 79.875 365.109 82.375V86.5469C365.109 88.8906 365.312 90.8594 365.719 92.4531C366.125 94.0156 366.719 95.2969 367.5 96.2969C368.312 97.2656 369.297 97.9688 370.453 98.4062C371.609 98.8125 372.953 99.0156 374.484 99.0156C376.797 99.0156 378.875 98.6094 380.719 97.7969C382.594 96.9531 384.188 95.8125 385.5 94.375L390.75 102.344C389.844 103.531 388.594 104.719 387 105.906C385.406 107.094 383.5 108.062 381.281 108.812C379.062 109.562 376.5 109.938 373.594 109.938ZM412.875 37V109H399.703V37H412.875ZM437.062 58.2812V109H423.891V58.2812H437.062ZM423.281 45.1562C423.281 43.125 423.922 41.4531 425.203 40.1406C426.516 38.7969 428.266 38.125 430.453 38.125C432.672 38.125 434.422 38.7969 435.703 40.1406C436.984 41.4531 437.625 43.125 437.625 45.1562C437.625 47.1562 436.969 48.8281 435.656 50.1719C434.375 51.4844 432.656 52.1406 430.5 52.1406C428.281 52.1406 426.516 51.4844 425.203 50.1719C423.922 48.8281 423.281 47.1562 423.281 45.1562ZM462.422 98.875L470.578 58.2812H484.266L470.344 109H462.141L462.422 98.875ZM457.594 58.2812L465.891 98.9219L466.031 109H457.781L443.859 58.2812H457.594ZM510.375 109.938C506.906 109.938 503.828 109.406 501.141 108.344C498.484 107.281 496.234 105.75 494.391 103.75C492.547 101.719 491.141 99.2656 490.172 96.3906C489.203 93.5156 488.719 90.2344 488.719 86.5469V82.375C488.719 78.25 489.188 74.6406 490.125 71.5469C491.062 68.4219 492.391 65.7969 494.109 63.6719C495.828 61.5469 497.938 59.9688 500.438 58.9375C502.969 57.875 505.828 57.3438 509.016 57.3438C512.203 57.3438 515 57.875 517.406 58.9375C519.844 59.9688 521.859 61.5312 523.453 63.625C525.047 65.6875 526.25 68.25 527.062 71.3125C527.875 74.375 528.281 77.9375 528.281 82V88H494.297V78.7656H515.391V77.5938C515.391 75.5312 515.172 73.8125 514.734 72.4375C514.297 71.0312 513.609 69.9844 512.672 69.2969C511.734 68.6094 510.484 68.2656 508.922 68.2656C507.609 68.2656 506.5 68.5312 505.594 69.0625C504.688 69.5938 503.969 70.4219 503.438 71.5469C502.906 72.6719 502.516 74.1406 502.266 75.9531C502.016 77.7344 501.891 79.875 501.891 82.375V86.5469C501.891 88.8906 502.094 90.8594 502.5 92.4531C502.906 94.0156 503.5 95.2969 504.281 96.2969C505.094 97.2656 506.078 97.9688 507.234 98.4062C508.391 98.8125 509.734 99.0156 511.266 99.0156C513.578 99.0156 515.656 98.6094 517.5 97.7969C519.375 96.9531 520.969 95.8125 522.281 94.375L527.531 102.344C526.625 103.531 525.375 104.719 523.781 105.906C522.188 107.094 520.281 108.062 518.062 108.812C515.844 109.562 513.281 109.938 510.375 109.938ZM549 69.5781V109H535.875V58.2812H548.25L549 69.5781ZM560.953 57.9062L560.766 70.9844C560.172 70.8594 559.453 70.7656 558.609 70.7031C557.797 70.6406 557.078 70.6094 556.453 70.6094C554.984 70.6094 553.734 70.8438 552.703 71.3125C551.672 71.75 550.812 72.4219 550.125 73.3281C549.469 74.2031 548.969 75.2969 548.625 76.6094C548.281 77.9219 548.078 79.4062 548.016 81.0625L545.531 80.125C545.531 76.8125 545.781 73.7812 546.281 71.0312C546.812 68.25 547.594 65.8438 548.625 63.8125C549.656 61.75 550.891 60.1562 552.328 59.0312C553.797 57.9062 555.453 57.3438 557.297 57.3438C557.922 57.3438 558.578 57.4062 559.266 57.5312C559.984 57.625 560.547 57.75 560.953 57.9062ZM581.25 103.188L591.844 58.2812H605.531L588.844 116.594C588.469 117.875 587.953 119.25 587.297 120.719C586.641 122.219 585.766 123.625 584.672 124.938C583.609 126.281 582.266 127.375 580.641 128.219C579.016 129.062 577.062 129.484 574.781 129.484C573.625 129.484 572.688 129.406 571.969 129.25C571.281 129.125 570.406 128.906 569.344 128.594V118.375C569.625 118.375 569.891 118.375 570.141 118.375C570.422 118.406 570.688 118.422 570.938 118.422C572.406 118.422 573.578 118.219 574.453 117.812C575.328 117.438 576.031 116.844 576.562 116.031C577.125 115.219 577.594 114.203 577.969 112.984L581.25 103.188ZM578.531 58.2812L586.406 94.6562L588.188 109.469L579.328 110.312L564.469 58.2812H578.531ZM436.883 222H430.163V159.6H436.883V187.44H455.795V159.6H462.515V222H455.795V193.2H436.883V222ZM506.685 210V159.6H513.405V210C513.405 214.288 512.029 217.616 509.277 219.984C506.589 222.288 502.525 223.44 497.085 223.44C491.709 223.44 487.645 222.288 484.893 219.984C482.141 217.616 480.765 214.288 480.765 210V159.6H487.485V210C487.485 215.12 490.685 217.68 497.085 217.68C503.485 217.68 506.685 215.12 506.685 210ZM531.6 159.6H546.096C551.088 159.6 554.864 160.784 557.424 163.152C560.048 165.52 561.36 168.816 561.36 173.04V178.8C561.36 184.24 559.088 187.728 554.544 189.264C559.728 190.672 562.32 194.224 562.32 199.92V208.56C562.32 212.848 561.04 216.176 558.48 218.544C555.92 220.848 552.112 222 547.056 222H531.6V159.6ZM555.6 208.56V199.92C555.6 197.872 554.832 196.016 553.296 194.352C551.76 192.624 549.68 191.76 547.056 191.76H538.32V216.24H547.056C549.744 216.24 551.824 215.504 553.296 214.032C554.832 212.496 555.6 210.672 555.6 208.56ZM554.64 178.8V173.04C554.64 170.992 553.872 169.2 552.336 167.664C550.864 166.128 548.784 165.36 546.096 165.36H538.32V186.96H546.096C548.784 186.96 550.864 186.128 552.336 184.464C553.872 182.8 554.64 180.912 554.64 178.8Z" fill="#0A112F"/>
<path d="M299.578 153.75H321.469C326.031 153.75 329.922 154.531 333.141 156.094C336.359 157.656 338.828 159.969 340.547 163.031C342.266 166.094 343.125 169.875 343.125 174.375C343.125 178.062 342.625 181.219 341.625 183.844C340.625 186.438 339.203 188.609 337.359 190.359C335.516 192.078 333.312 193.453 330.75 194.484L326.578 196.969H308.812L308.766 185.578H321.094C322.969 185.578 324.516 185.172 325.734 184.359C326.984 183.516 327.906 182.344 328.5 180.844C329.125 179.312 329.438 177.531 329.438 175.5C329.438 173.344 329.156 171.5 328.594 169.969C328.062 168.406 327.203 167.219 326.016 166.406C324.859 165.562 323.344 165.141 321.469 165.141H313.312V222H299.578V153.75ZM330.562 222L318.047 191.578L332.438 191.531L345.234 221.344V222H330.562ZM391.828 210.656V222H362.156V210.656H391.828ZM366.422 153.75V222H352.688V153.75H366.422ZM387.844 181.406V192.422H362.156V181.406H387.844ZM391.734 153.75V165.141H362.156V153.75H391.734ZM400.359 215.297C400.359 213.234 401.047 211.516 402.422 210.141C403.797 208.734 405.656 208.031 408 208.031C410.344 208.031 412.203 208.734 413.578 210.141C414.953 211.516 415.641 213.234 415.641 215.297C415.641 217.359 414.953 219.078 413.578 220.453C412.203 221.828 410.344 222.516 408 222.516C405.656 222.516 403.797 221.828 402.422 220.453C401.047 219.078 400.359 217.359 400.359 215.297ZM400.266 176.859C400.266 174.797 400.953 173.078 402.328 171.703C403.703 170.297 405.562 169.594 407.906 169.594C410.25 169.594 412.109 170.297 413.484 171.703C414.859 173.078 415.547 174.797 415.547 176.859C415.547 178.922 414.859 180.641 413.484 182.016C412.109 183.391 410.25 184.078 407.906 184.078C405.562 184.078 403.703 183.391 402.328 182.016C400.953 180.641 400.266 178.922 400.266 176.859Z" fill="#FAA745"/>
<circle cx="128" cy="126" r="110" stroke="#0A112F" stroke-width="10"/>
<path fill-rule="evenodd" clip-rule="evenodd" d="M57.5 127L62.1875 136.375H68.4375V158.25H80.9375C80.9375 163.223 82.9129 167.992 86.4292 171.508C89.9456 175.025 94.7147 177 99.6875 177C104.66 177 109.429 175.025 112.946 171.508C116.462 167.992 118.438 163.223 118.438 158.25H143.438C143.438 163.223 145.413 167.992 148.929 171.508C152.446 175.025 157.215 177 162.188 177C167.16 177 171.929 175.025 175.446 171.508C178.962 167.992 180.938 163.223 180.938 158.25H193.438V127L174.688 102H155.938V77H80.9375C77.6223 77 74.4429 78.317 72.0987 80.6612C69.7545 83.0054 68.4375 86.1848 68.4375 89.5H45L50.375 98.875H96.25L100 108.25H51.25L55.9375 117.625H86.5625L90.3125 127H57.5ZM168.817 164.879C167.058 166.637 164.674 167.625 162.188 167.625C159.701 167.625 157.317 166.637 155.558 164.879C153.8 163.121 152.812 160.736 152.812 158.25C152.812 155.764 153.8 153.379 155.558 151.621C157.317 149.863 159.701 148.875 162.188 148.875C164.674 148.875 167.058 149.863 168.817 151.621C170.575 153.379 171.562 155.764 171.562 158.25C171.562 160.736 170.575 163.121 168.817 164.879ZM155.938 111.375H171.562L183.812 127H155.938V111.375ZM106.317 164.879C104.558 166.637 102.174 167.625 99.6875 167.625C97.2011 167.625 94.8165 166.637 93.0584 164.879C91.3002 163.121 90.3125 160.736 90.3125 158.25C90.3125 155.764 91.3002 153.379 93.0584 151.621C94.8165 149.863 97.2011 148.875 99.6875 148.875C102.174 148.875 104.558 149.863 106.317 151.621C108.075 153.379 109.062 155.764 109.062 158.25C109.062 160.736 108.075 163.121 106.317 164.879ZM127.867 110.938H122.395V128H125.828V121.742H127.566L130.141 128H133.809V127.836L130.802 120.832C131.188 120.623 131.534 120.375 131.84 120.09C132.301 119.652 132.656 119.109 132.906 118.461C133.156 117.805 133.281 117.016 133.281 116.094C133.281 114.969 133.066 114.023 132.637 113.258C132.207 112.492 131.59 111.914 130.785 111.523C129.98 111.133 129.008 110.938 127.867 110.938ZM125.828 118.895H127.773C128.242 118.895 128.629 118.793 128.934 118.59C129.246 118.379 129.477 118.086 129.625 117.711C129.781 117.328 129.859 116.883 129.859 116.375C129.859 115.836 129.789 115.375 129.648 114.992C129.516 114.602 129.301 114.305 129.004 114.102C128.715 113.891 128.336 113.785 127.867 113.785H125.828V118.895ZM145.457 128V125.164H139.105V120.605H144.461V117.852H139.105V113.785H145.434V110.938H139.105H138.039H135.672V128H138.039H139.105H145.457Z" fill="#0A112F"/>
</svg>
